# xmcd
#
# Track frame offsets: 
#        150
#        18002
#        36763
#        53826
#        73165
#        87344
#        103974
#        118200
#        134220
#        149069
#        164831
#        182299
#        204624
#
# Disc length: 2991 seconds
#
# Revision: 0
# Processed by: cddbd v1.5.2PL0 Copyright (c) Steve Scherf et al.
# Submitted via: ExactAudioCopy v0.95b4
#
DISCID=cb0bad0d
DTITLE=Terri Clark - Fearless
DYEAR=2000
DGENRE=Country
TTITLE0=No Fear
TTITLE1=Sometimes Goodbye
TTITLE2=Take My Time
TTITLE3=Empty
TTITLE4=Getting There
TTITLE5=Easy From Now On
TTITLE6=A Little Gasoline
TTITLE7=Last Thing I Wanted
TTITLE8=To Tell You Everything
TTITLE9=The Real Thing
TTITLE10=Midnight's Gone
TTITLE11=Good Mother
TTITLE12=You Are The Love
EXTD=
EXTT0=
EXTT1=
EXTT2=
EXTT3=
EXTT4=
EXTT5=
EXTT6=
EXTT7=
EXTT8=
EXTT9=
EXTT10=
EXTT11=
EXTT12=
PLAYORDER=
